<!DOCTYPE svg PUBLIC "-//W3C//DTD SVG 1.1//EN" "http://www.w3.org/Graphics/SVG/1.1/DTD/svg11.dtd">
<!-- Uploaded to: SVG Repo, www.svgrepo.com, Transformed by: SVG Repo Mixer Tools -->
<svg fill="#970707" height="100px" width="100px" version="1.1" id="Capa_1" xmlns="http://www.w3.org/2000/svg" xmlns:xlink="http://www.w3.org/1999/xlink" viewBox="0 0 489.5 489.5" xml:space="preserve" stroke="#970707" transform="matrix(-1, 0, 0, 1, 0, 0)">
<g id="SVGRepo_bgCarrier" stroke-width="0"/>
<g id="SVGRepo_tracerCarrier" stroke-linecap="round" stroke-linejoin="round"/>
<g id="SVGRepo_iconCarrier"> <g> <g> <g> <g> <path d="M229.6,139.7H5c-2.7,0-5,2.3-5,5v339.5c0,2.7,2.3,5,5,5h225.3c2.7,0,5.1-2.3,5.1-5V145.5 C235.8,142.4,233,139.7,229.6,139.7z M117.7,479.2c-19.4,0-35.3-15.9-35.3-35.3s15.9-35.3,35.3-35.3s35.3,15.9,35.3,35.3 S137.1,479.2,117.7,479.2z M193.8,373.6H41.9V187.5h151.9L193.8,373.6L193.8,373.6z"/> <path d="M104.1,70.2v50.1h125.5h0.8c13.6,0,24.5,10.9,24.5,24.5v0.8v239.7h234.6v-315H104.1V70.2z"/> </g> <path d="M489.4,0.3H104.1v50.5h385.3L489.4,0.3L489.4,0.3z M363.6,35.2H136.3c-5.4,0-9.7-4.3-9.7-9.7s4.3-9.7,9.7-9.7h227.2 c5.4,0,9.7,4.3,9.7,9.7S369,35.2,363.6,35.2z M410.2,35.2h-14c-5.4,0-9.7-4.3-9.7-9.7s4.3-9.7,9.7-9.7h14.4 c5.4,0,9.7,4.3,9.7,9.7S415.6,35.2,410.2,35.2z M457.6,35.2h-14.4c-5.4,0-9.7-4.3-9.7-9.7s4.3-9.7,9.7-9.7h14.4 c5.4,0,9.7,4.3,9.7,9.7S462.6,35.2,457.6,35.2z"/> </g> </g> </g> </g>
</svg>